<mxfile host="app.diagrams.net" modified="2022-03-08T13:48:32.046Z" agent="5.0 (X11; Linux x86_64) AppleWebKit/537.36 (KHTML, like Gecko) Chrome/99.0.4844.51 Safari/537.36" etag="l1LmN2pSl4Pemo4Jkz2y" version="16.5.3" type="github">
  <diagram id="C5RBs43oDa-KdzZeNtuy" name="Page-1">
    <mxGraphModel dx="1736" dy="1040" grid="1" gridSize="10" guides="1" tooltips="1" connect="1" arrows="1" fold="1" page="1" pageScale="1" pageWidth="827" pageHeight="1169" math="0" shadow="0">
      <root>
        <mxCell id="WIyWlLk6GJQsqaUBKTNV-0" />
        <mxCell id="WIyWlLk6GJQsqaUBKTNV-1" parent="WIyWlLk6GJQsqaUBKTNV-0" />
        <mxCell id="zkfFHV4jXpPFQw0GAbJ--0" value="User" style="swimlane;fontStyle=0;align=center;verticalAlign=top;childLayout=stackLayout;horizontal=1;startSize=26;horizontalStack=0;resizeParent=1;resizeLast=0;collapsible=1;marginBottom=0;rounded=0;shadow=0;strokeWidth=1;" parent="WIyWlLk6GJQsqaUBKTNV-1" vertex="1">
          <mxGeometry x="220" y="120" width="160" height="210" as="geometry">
            <mxRectangle x="230" y="140" width="160" height="26" as="alternateBounds" />
          </mxGeometry>
        </mxCell>
        <mxCell id="zkfFHV4jXpPFQw0GAbJ--1" value="-id : int" style="text;align=left;verticalAlign=top;spacingLeft=4;spacingRight=4;overflow=hidden;rotatable=0;points=[[0,0.5],[1,0.5]];portConstraint=eastwest;" parent="zkfFHV4jXpPFQw0GAbJ--0" vertex="1">
          <mxGeometry y="26" width="160" height="26" as="geometry" />
        </mxCell>
        <mxCell id="zkfFHV4jXpPFQw0GAbJ--2" value="- name : string" style="text;align=left;verticalAlign=top;spacingLeft=4;spacingRight=4;overflow=hidden;rotatable=0;points=[[0,0.5],[1,0.5]];portConstraint=eastwest;rounded=0;shadow=0;html=0;" parent="zkfFHV4jXpPFQw0GAbJ--0" vertex="1">
          <mxGeometry y="52" width="160" height="26" as="geometry" />
        </mxCell>
        <mxCell id="zkfFHV4jXpPFQw0GAbJ--3" value="- password : string" style="text;align=left;verticalAlign=top;spacingLeft=4;spacingRight=4;overflow=hidden;rotatable=0;points=[[0,0.5],[1,0.5]];portConstraint=eastwest;rounded=0;shadow=0;html=0;" parent="zkfFHV4jXpPFQw0GAbJ--0" vertex="1">
          <mxGeometry y="78" width="160" height="26" as="geometry" />
        </mxCell>
        <mxCell id="zkfFHV4jXpPFQw0GAbJ--4" value="" style="line;html=1;strokeWidth=1;align=left;verticalAlign=middle;spacingTop=-1;spacingLeft=3;spacingRight=3;rotatable=0;labelPosition=right;points=[];portConstraint=eastwest;" parent="zkfFHV4jXpPFQw0GAbJ--0" vertex="1">
          <mxGeometry y="104" width="160" height="8" as="geometry" />
        </mxCell>
        <mxCell id="zkfFHV4jXpPFQw0GAbJ--5" value="+ login() : bool&#xa;+ subscribe() : bool" style="text;align=left;verticalAlign=top;spacingLeft=4;spacingRight=4;overflow=hidden;rotatable=0;points=[[0,0.5],[1,0.5]];portConstraint=eastwest;" parent="zkfFHV4jXpPFQw0GAbJ--0" vertex="1">
          <mxGeometry y="112" width="160" height="68" as="geometry" />
        </mxCell>
        <mxCell id="zkfFHV4jXpPFQw0GAbJ--13" value="Admin" style="swimlane;fontStyle=0;align=center;verticalAlign=top;childLayout=stackLayout;horizontal=1;startSize=26;horizontalStack=0;resizeParent=1;resizeLast=0;collapsible=1;marginBottom=0;rounded=0;shadow=0;strokeWidth=1;" parent="WIyWlLk6GJQsqaUBKTNV-1" vertex="1">
          <mxGeometry x="185" y="470" width="230" height="93" as="geometry">
            <mxRectangle x="340" y="380" width="170" height="26" as="alternateBounds" />
          </mxGeometry>
        </mxCell>
        <mxCell id="zkfFHV4jXpPFQw0GAbJ--14" value="- email: string" style="text;align=left;verticalAlign=top;spacingLeft=4;spacingRight=4;overflow=hidden;rotatable=0;points=[[0,0.5],[1,0.5]];portConstraint=eastwest;" parent="zkfFHV4jXpPFQw0GAbJ--13" vertex="1">
          <mxGeometry y="26" width="230" height="26" as="geometry" />
        </mxCell>
        <mxCell id="zkfFHV4jXpPFQw0GAbJ--15" value="" style="line;html=1;strokeWidth=1;align=left;verticalAlign=middle;spacingTop=-1;spacingLeft=3;spacingRight=3;rotatable=0;labelPosition=right;points=[];portConstraint=eastwest;" parent="zkfFHV4jXpPFQw0GAbJ--13" vertex="1">
          <mxGeometry y="52" width="230" height="8" as="geometry" />
        </mxCell>
        <mxCell id="W38MIc2aJaiIH-HZcBpx-2" value="+ sendAdminEmail(string message) : bool" style="text;html=1;resizable=0;autosize=1;align=center;verticalAlign=middle;points=[];fillColor=none;strokeColor=none;rounded=0;" vertex="1" parent="zkfFHV4jXpPFQw0GAbJ--13">
          <mxGeometry y="60" width="230" height="20" as="geometry" />
        </mxCell>
        <mxCell id="zkfFHV4jXpPFQw0GAbJ--16" value="" style="endArrow=block;endSize=10;endFill=0;shadow=0;strokeWidth=1;rounded=0;edgeStyle=elbowEdgeStyle;elbow=vertical;" parent="WIyWlLk6GJQsqaUBKTNV-1" source="zkfFHV4jXpPFQw0GAbJ--13" target="zkfFHV4jXpPFQw0GAbJ--0" edge="1">
          <mxGeometry width="160" relative="1" as="geometry">
            <mxPoint x="210" y="373" as="sourcePoint" />
            <mxPoint x="310" y="271" as="targetPoint" />
          </mxGeometry>
        </mxCell>
        <mxCell id="zkfFHV4jXpPFQw0GAbJ--26" value="" style="endArrow=open;shadow=0;strokeWidth=1;rounded=0;endFill=1;edgeStyle=elbowEdgeStyle;elbow=vertical;entryX=0;entryY=0.5;entryDx=0;entryDy=0;" parent="WIyWlLk6GJQsqaUBKTNV-1" source="zkfFHV4jXpPFQw0GAbJ--0" target="W38MIc2aJaiIH-HZcBpx-5" edge="1">
          <mxGeometry x="0.5" y="41" relative="1" as="geometry">
            <mxPoint x="380" y="192" as="sourcePoint" />
            <mxPoint x="508" y="225" as="targetPoint" />
            <mxPoint x="-40" y="32" as="offset" />
          </mxGeometry>
        </mxCell>
        <mxCell id="zkfFHV4jXpPFQw0GAbJ--27" value="0..*" style="resizable=0;align=left;verticalAlign=bottom;labelBackgroundColor=none;fontSize=12;" parent="zkfFHV4jXpPFQw0GAbJ--26" connectable="0" vertex="1">
          <mxGeometry x="-1" relative="1" as="geometry">
            <mxPoint y="4" as="offset" />
          </mxGeometry>
        </mxCell>
        <mxCell id="zkfFHV4jXpPFQw0GAbJ--28" value="0..*" style="resizable=0;align=right;verticalAlign=bottom;labelBackgroundColor=none;fontSize=12;" parent="zkfFHV4jXpPFQw0GAbJ--26" connectable="0" vertex="1">
          <mxGeometry x="1" relative="1" as="geometry">
            <mxPoint x="-7" y="4" as="offset" />
          </mxGeometry>
        </mxCell>
        <mxCell id="zkfFHV4jXpPFQw0GAbJ--29" value="contains &amp;gt;" style="text;html=1;resizable=0;points=[];;align=center;verticalAlign=middle;labelBackgroundColor=none;rounded=0;shadow=0;strokeWidth=1;fontSize=12;" parent="zkfFHV4jXpPFQw0GAbJ--26" vertex="1" connectable="0">
          <mxGeometry x="0.5" y="49" relative="1" as="geometry">
            <mxPoint x="-38" y="40" as="offset" />
          </mxGeometry>
        </mxCell>
        <mxCell id="W38MIc2aJaiIH-HZcBpx-4" value="Article" style="swimlane;fontStyle=1;align=center;verticalAlign=top;childLayout=stackLayout;horizontal=1;startSize=26;horizontalStack=0;resizeParent=1;resizeParentMax=0;resizeLast=0;collapsible=1;marginBottom=0;" vertex="1" parent="WIyWlLk6GJQsqaUBKTNV-1">
          <mxGeometry x="620" y="168" width="160" height="114" as="geometry" />
        </mxCell>
        <mxCell id="W38MIc2aJaiIH-HZcBpx-5" value="+ id : int&#xa;- name : string&#xa;- price : float" style="text;strokeColor=none;fillColor=none;align=left;verticalAlign=top;spacingLeft=4;spacingRight=4;overflow=hidden;rotatable=0;points=[[0,0.5],[1,0.5]];portConstraint=eastwest;" vertex="1" parent="W38MIc2aJaiIH-HZcBpx-4">
          <mxGeometry y="26" width="160" height="54" as="geometry" />
        </mxCell>
        <mxCell id="W38MIc2aJaiIH-HZcBpx-6" value="" style="line;strokeWidth=1;fillColor=none;align=left;verticalAlign=middle;spacingTop=-1;spacingLeft=3;spacingRight=3;rotatable=0;labelPosition=right;points=[];portConstraint=eastwest;" vertex="1" parent="W38MIc2aJaiIH-HZcBpx-4">
          <mxGeometry y="80" width="160" height="8" as="geometry" />
        </mxCell>
        <mxCell id="W38MIc2aJaiIH-HZcBpx-7" value="+ method(type): type" style="text;strokeColor=none;fillColor=none;align=left;verticalAlign=top;spacingLeft=4;spacingRight=4;overflow=hidden;rotatable=0;points=[[0,0.5],[1,0.5]];portConstraint=eastwest;" vertex="1" parent="W38MIc2aJaiIH-HZcBpx-4">
          <mxGeometry y="88" width="160" height="26" as="geometry" />
        </mxCell>
        <mxCell id="W38MIc2aJaiIH-HZcBpx-9" value="shopping cart" style="text;html=1;resizable=0;autosize=1;align=center;verticalAlign=middle;points=[];fillColor=none;strokeColor=none;rounded=0;" vertex="1" parent="WIyWlLk6GJQsqaUBKTNV-1">
          <mxGeometry x="390" y="230" width="90" height="20" as="geometry" />
        </mxCell>
        <mxCell id="W38MIc2aJaiIH-HZcBpx-10" value="added articles" style="text;html=1;resizable=0;autosize=1;align=center;verticalAlign=middle;points=[];fillColor=none;strokeColor=none;rounded=0;" vertex="1" parent="WIyWlLk6GJQsqaUBKTNV-1">
          <mxGeometry x="530" y="230" width="90" height="20" as="geometry" />
        </mxCell>
        <mxCell id="W38MIc2aJaiIH-HZcBpx-12" value="&lt;div class=&quot;complement_co pBk_co&quot;&gt;&lt;div class=&quot;rBk &quot;&gt;&lt;p&gt;Dans le code &lt;br&gt;final, chaque association deviendra une propriété dans la classe &lt;br&gt;concernée. Le type de la propriété va dépendre de la cardinalité de &lt;br&gt;l&#39;association&amp;nbsp;:&lt;/p&gt;&lt;ul class=&quot;txt_il &quot;&gt;&lt;li class=&quot;txt_ili &quot;&gt;&lt;p&gt;&lt;code class=&quot;txt_code_is &quot;&gt;1&lt;/code&gt;&amp;nbsp;: &lt;strong class=&quot;txt_emp_is &quot;&gt;propriété non nullable&lt;/strong&gt;. Si un cours est animé par un seul professeur, alors la classe&amp;nbsp;&lt;/p&gt;&lt;/li&gt;&lt;li class=&quot;txt_ili &quot;&gt;&lt;p&gt;&lt;code class=&quot;txt_code_is &quot;&gt;Lesson&lt;/code&gt; aura une propriété de type &lt;code class=&quot;txt_code_is &quot;&gt;Teacher&lt;/code&gt; qui ne pourra pas être nulle.&lt;/p&gt;&lt;/li&gt;&lt;li class=&quot;txt_ili &quot;&gt;&lt;p&gt;&lt;code class=&quot;txt_code_is &quot;&gt;0..1&lt;/code&gt;&amp;nbsp;: &lt;strong class=&quot;txt_emp_is &quot;&gt;propriété nullable&lt;/strong&gt;.&lt;/p&gt;&lt;/li&gt;&lt;li class=&quot;txt_ili &quot;&gt;&lt;p&gt;&lt;code class=&quot;txt_code_is &quot;&gt;1..*&lt;/code&gt;&amp;nbsp;: &lt;strong class=&quot;txt_emp_is &quot;&gt;tableau non vide&lt;/strong&gt;. Si un cours doit être suivi par au moins un élève, alors la classe &lt;code class=&quot;txt_code_is &quot;&gt;Lesson&lt;/code&gt; aura une propriété de type &lt;code class=&quot;txt_code_is &quot;&gt;Student[]&lt;/code&gt;&lt;/p&gt;&lt;/li&gt;&lt;li class=&quot;txt_ili &quot;&gt;&lt;p&gt;&amp;nbsp;donc un tableau de &lt;code class=&quot;txt_code_is &quot;&gt;Student&lt;/code&gt;. Ce tableau devra être initialisé avec au moins un élément à l’intérieur.&lt;/p&gt;&lt;/li&gt;&lt;li class=&quot;txt_ili &quot;&gt;&lt;p&gt;&lt;code class=&quot;txt_code_is &quot;&gt;0..*&lt;/code&gt;&amp;nbsp;: &lt;strong class=&quot;txt_emp_is &quot;&gt;tableau pouvant être vide&lt;/strong&gt;.&lt;/p&gt;&lt;/li&gt;&lt;/ul&gt;&lt;/div&gt;&lt;/div&gt;" style="text;html=1;resizable=0;autosize=1;align=center;verticalAlign=middle;points=[];fillColor=none;strokeColor=none;rounded=0;" vertex="1" parent="WIyWlLk6GJQsqaUBKTNV-1">
          <mxGeometry x="30" y="620" width="790" height="240" as="geometry" />
        </mxCell>
        <mxCell id="W38MIc2aJaiIH-HZcBpx-15" value="&lt;ul class=&quot;txt_il &quot;&gt;&lt;li class=&quot;txt_ili &quot;&gt;&lt;p&gt;&lt;strong class=&quot;txt_emp_is &quot;&gt;1&lt;/strong&gt; désigne une cardinalité unitaire simple. Elle se lit «&amp;nbsp;un A est lié à &lt;i class=&quot;txt_spec_is &quot;&gt;un seul&lt;/i&gt; B&amp;nbsp;». Par exemple, un cours est animé par un seul professeu&lt;/p&gt;&lt;/li&gt;&lt;li class=&quot;txt_ili &quot;&gt;&lt;p&gt;r&amp;nbsp;: s&#39;il n&#39;y a pas de professeur, il n&#39;y a pas de cours.&lt;/p&gt;&lt;/li&gt;&lt;li class=&quot;txt_ili &quot;&gt;&lt;p&gt;&lt;strong class=&quot;txt_emp_is &quot;&gt;0..1&lt;/strong&gt; désigne une cardinalité unitaire pouvant être nulle. Elle se lit «&amp;nbsp;un A est lié à &lt;i class=&quot;txt_spec_is &quot;&gt;au plus un&lt;/i&gt;&lt;br&gt; B&amp;nbsp;». Par exemple, un professeur possède au plus une place de parking. &lt;br&gt;La différence avec la cardinalité de 1 est qu&#39;ici, certains professeurs &lt;br&gt;peuvent ne pas avoir de place de parking.&lt;/p&gt;&lt;/li&gt;&lt;li class=&quot;txt_ili &quot;&gt;&lt;p&gt;&lt;strong class=&quot;txt_emp_is &quot;&gt;1..*&lt;/strong&gt; désigne une cardinalité multiple simple. Elle se lit «&amp;nbsp;un A est lié à &lt;i class=&quot;txt_spec_is &quot;&gt;plusieurs&lt;/i&gt; B&amp;nbsp;». Par exemple, un cours est suivi par plusieurs&lt;/p&gt;&lt;/li&gt;&lt;li class=&quot;txt_ili &quot;&gt;&lt;p&gt;&amp;nbsp;élèves&amp;nbsp;: s&#39;il n&#39;y a pas d&#39;élèves, il n&#39;y a pas de cours.&lt;/p&gt;&lt;/li&gt;&lt;li class=&quot;txt_ili &quot;&gt;&lt;p&gt;&lt;strong class=&quot;txt_emp_is &quot;&gt;0..*&lt;/strong&gt; désigne une cardinalité multiple pouvant être nulle. Elle se lit «&amp;nbsp;un A &lt;i class=&quot;txt_spec_is &quot;&gt;peut&lt;/i&gt; être lié à &lt;i class=&quot;txt_spec_is &quot;&gt;plusieurs&lt;/i&gt;&lt;br&gt; B&amp;nbsp;». Par exemple, un professeur peut posséder plusieurs voitures. &lt;br&gt;Certains professeurs n&#39;en ont pas, certains en ont une et certains en &lt;br&gt;ont plusieurs.&lt;/p&gt;&lt;/li&gt;&lt;/ul&gt;" style="text;html=1;resizable=0;autosize=1;align=center;verticalAlign=middle;points=[];fillColor=none;strokeColor=none;rounded=0;" vertex="1" parent="WIyWlLk6GJQsqaUBKTNV-1">
          <mxGeometry x="40" y="890" width="770" height="260" as="geometry" />
        </mxCell>
        <mxCell id="W38MIc2aJaiIH-HZcBpx-16" value="&lt;div class=&quot;complement_co pBk_co&quot;&gt;&lt;div class=&quot;rBk &quot;&gt;&lt;p&gt;Dans le code &lt;br&gt;final, chaque association deviendra une propriété dans la classe &lt;br&gt;concernée. Le type de la propriété va dépendre de la cardinalité de &lt;br&gt;l&#39;association&amp;nbsp;:&lt;/p&gt;&lt;ul class=&quot;txt_il &quot;&gt;&lt;li class=&quot;txt_ili &quot;&gt;&lt;p&gt;&lt;code class=&quot;txt_code_is &quot;&gt;1&lt;/code&gt;&amp;nbsp;: &lt;strong class=&quot;txt_emp_is &quot;&gt;propriété non nullable&lt;/strong&gt;. Si un cours est animé par un seul professeur, alors la classe&amp;nbsp;&lt;/p&gt;&lt;/li&gt;&lt;li class=&quot;txt_ili &quot;&gt;&lt;p&gt;&lt;code class=&quot;txt_code_is &quot;&gt;Lesson&lt;/code&gt; aura une propriété de type &lt;code class=&quot;txt_code_is &quot;&gt;Teacher&lt;/code&gt; qui ne pourra pas être nulle.&lt;/p&gt;&lt;/li&gt;&lt;li class=&quot;txt_ili &quot;&gt;&lt;p&gt;&lt;code class=&quot;txt_code_is &quot;&gt;0..1&lt;/code&gt;&amp;nbsp;: &lt;strong class=&quot;txt_emp_is &quot;&gt;propriété nullable&lt;/strong&gt;.&lt;/p&gt;&lt;/li&gt;&lt;li class=&quot;txt_ili &quot;&gt;&lt;p&gt;&lt;code class=&quot;txt_code_is &quot;&gt;1..*&lt;/code&gt;&amp;nbsp;: &lt;strong class=&quot;txt_emp_is &quot;&gt;tableau non vide&lt;/strong&gt;. Si un cours doit être suivi par au moins un élève, alors la classe &lt;code class=&quot;txt_code_is &quot;&gt;Lesson&lt;/code&gt; aura une propriété de type &lt;code class=&quot;txt_code_is &quot;&gt;Student[]&lt;/code&gt;&lt;/p&gt;&lt;/li&gt;&lt;li class=&quot;txt_ili &quot;&gt;&lt;p&gt;&amp;nbsp;donc un tableau de &lt;code class=&quot;txt_code_is &quot;&gt;Student&lt;/code&gt;. Ce tableau devra être initialisé avec au moins un élément à l’intérieur.&lt;/p&gt;&lt;/li&gt;&lt;li class=&quot;txt_ili &quot;&gt;&lt;p&gt;&lt;code class=&quot;txt_code_is &quot;&gt;0..*&lt;/code&gt;&amp;nbsp;: &lt;strong class=&quot;txt_emp_is &quot;&gt;tableau pouvant être vide&lt;/strong&gt;.&lt;/p&gt;&lt;/li&gt;&lt;/ul&gt;&lt;/div&gt;&lt;/div&gt;" style="text;html=1;resizable=0;autosize=1;align=center;verticalAlign=middle;points=[];fillColor=none;strokeColor=none;rounded=0;" vertex="1" parent="WIyWlLk6GJQsqaUBKTNV-1">
          <mxGeometry x="30" y="620" width="790" height="240" as="geometry" />
        </mxCell>
      </root>
    </mxGraphModel>
  </diagram>
</mxfile>
